<!DOCTYPE svg PUBLIC "-//W3C//DTD SVG 1.1//EN" "http://www.w3.org/Graphics/SVG/1.1/DTD/svg11.dtd">
<!-- Uploaded to: SVG Repo, www.svgrepo.com, Transformed by: SVG Repo Mixer Tools -->
<svg fill="#000000" height="64px" width="64px" version="1.1" id="Capa_1" xmlns="http://www.w3.org/2000/svg" xmlns:xlink="http://www.w3.org/1999/xlink" viewBox="0 0 388.637 388.637" xml:space="preserve">
<g id="SVGRepo_bgCarrier" stroke-width="0"/>
<g id="SVGRepo_tracerCarrier" stroke-linecap="round" stroke-linejoin="round"/>
<g id="SVGRepo_iconCarrier"> <g> <path d="M378.637,74.318H10c-5.523,0-10,4.477-10,10c0,5.523,4.477,10,10,10h78.965v24.009H54.729c-5.521,0-10,4.477-10,10v175.991 c0,5.523,4.479,10,10,10h279.18c5.523,0,10-4.477,10-10V128.327c0-5.523-4.477-10-10-10H290.19V94.318h88.447 c5.523,0,10-4.477,10-10C388.637,78.796,384.16,74.318,378.637,74.318z M108.965,94.318H270.19v24.009H108.965V94.318z M323.908,138.327v155.991H64.729V138.327H323.908z"/> <g> <path d="M164.172,176.721c-0.619-1.637-2.186-2.722-3.936-2.722h-0.008l-7.087,0.015c-1.753,0.004-3.321,1.095-3.932,2.738 l-24.628,66.168c-0.48,1.29-0.297,2.734,0.488,3.866c0.783,1.13,2.075,1.805,3.453,1.805h6.408c1.757,0,3.328-1.092,3.941-2.738 l7.282-19.568h21.286l7.382,19.585c0.617,1.637,2.185,2.721,3.936,2.721h6.418c0.008,0,0.015,0,0.022,0 c2.324,0,4.207-1.883,4.207-4.204c0-0.68-0.162-1.321-0.449-1.89L164.172,176.721z M151.521,211.869l5.213-14.004l5.276,14.004 H151.521z"/> <path d="M226.348,173.712h-26.634c-2.321,0-4.205,1.883-4.205,4.204v66.069c0,2.323,1.884,4.205,4.205,4.205h26.634 c20.936,0,37.971-16.686,37.971-37.196C264.318,190.437,247.283,173.712,226.348,173.712z M226.348,233.775h-16.422v-45.646 h16.422c12.988,0,23.557,10.257,23.557,22.866C249.904,223.555,239.336,233.775,226.348,233.775z"/> </g> </g> </g>
</svg>